<?xml version="1.0" standalone="no"?>
<!DOCTYPE svg PUBLIC "-//W3C//DTD SVG 20010904//EN"
 "http://www.w3.org/TR/2001/REC-SVG-20010904/DTD/svg10.dtd">
<svg version="1.0" xmlns="http://www.w3.org/2000/svg"
 width="1000.000000pt" height="1000.000000pt" viewBox="0 0 1000.000000 1000.000000"
 preserveAspectRatio="xMidYMid meet">
<metadata>
Created by potrace 1.14, written by Peter Selinger 2001-2017
</metadata>
<g transform="translate(0.000000,1000.000000) scale(0.100000,-0.100000)"
fill="#000000" stroke="none">
<path d="M0 5000 l0 -5000 5000 0 5000 0 0 5000 0 5000 -5000 0 -5000 0 0
-5000z m5495 4771 c1358 -164 2541 -844 3346 -1923 520 -697 830 -1489 936
-2393 25 -212 25 -795 0 -1010 -134 -1143 -607 -2136 -1397 -2925 -789 -790
-1780 -1262 -2925 -1397 -214 -25 -796 -25 -1010 0 -1145 135 -2136 607 -2925
1397 -790 789 -1263 1781 -1397 2925 -25 213 -25 797 0 1010 134 1144 607
2136 1397 2925 648 648 1461 1098 2351 1300 230 53 468 88 769 114 25 2 189 2
365 1 246 -2 359 -8 490 -24z"/>
<path d="M4780 7694 c-225 -38 -426 -126 -586 -255 -63 -50 -233 -229 -295
-309 -121 -156 -269 -428 -344 -630 -15 -41 -31 -84 -35 -95 -48 -117 -115
-401 -154 -648 -37 -232 -45 -757 -16 -987 14 -104 46 -301 64 -385 88 -419
281 -850 504 -1128 30 -37 53 -69 51 -70 -7 -5 -103 -26 -149 -32 -45 -7 -63
-11 -180 -40 -249 -63 -393 -150 -433 -261 -21 -60 -21 -87 -1 -147 32 -93
143 -173 323 -231 46 -15 102 -31 125 -36 386 -81 521 -97 1023 -120 313 -14
746 4 1063 45 484 61 757 154 851 292 66 95 43 228 -52 305 -114 91 -385 178
-671 215 -21 3 -38 8 -38 12 0 4 23 37 52 72 165 205 326 522 422 829 255 823
213 1779 -112 2530 -128 296 -263 500 -462 701 -183 184 -394 305 -620 356
-64 14 -281 26 -330 17z m320 -260 c487 -123 880 -637 1076 -1404 135 -527
122 -1234 -31 -1765 -168 -584 -456 -998 -839 -1209 -40 -22 -51 -25 -61 -14
-36 38 -140 274 -184 418 -62 202 -94 427 -94 655 -1 250 23 388 148 860 71
269 98 488 98 800 1 292 -27 551 -97 893 -39 187 -150 514 -236 694 -27 56
-34 80 -26 88 14 14 167 4 246 -16z m-416 -142 c111 -221 200 -491 261 -789
37 -182 55 -163 -150 -163 l-175 0 0 -120 0 -120 239 0 c133 0 242 -4 245 -9
4 -5 -16 -15 -44 -22 l-50 -13 3 -160 2 -161 -622 -3 -623 -2 0 -115 0 -115
668 0 c377 0 673 -4 681 -9 11 -7 3 -12 -30 -20 -84 -22 -84 -21 -97 -107 -7
-44 -20 -114 -29 -156 l-16 -78 -246 -2 -246 -3 0 -115 0 -115 242 -5 c254 -5
307 -15 218 -40 -36 -10 -46 -18 -51 -39 -3 -14 -14 -57 -24 -96 -10 -38 -21
-90 -25 -115 -3 -25 -9 -53 -11 -62 -5 -17 -38 -18 -520 -18 l-514 0 0 -120 0
-120 533 0 c292 0 543 -3 557 -7 22 -6 18 -9 -30 -23 l-55 -16 -5 -119 -5
-120 -332 -3 -333 -2 0 -115 0 -115 393 0 c404 0 493 -9 367 -35 -56 -12 -59
-16 -44 -98 28 -164 92 -370 166 -535 36 -79 48 -116 40 -124 -27 -27 -278
-12 -377 23 -180 65 -313 150 -457 293 -290 288 -499 725 -603 1266 -48 246
-71 589 -56 827 11 181 34 388 50 462 40 184 55 247 77 326 26 90 34 115 96
275 47 123 146 313 218 421 157 234 320 390 515 490 91 47 123 59 138 51 4 -2
32 -52 61 -110z m-423 -4368 c62 -45 250 -138 319 -159 30 -9 69 -20 85 -25
47 -14 215 -30 270 -25 156 12 170 15 291 54 104 34 226 98 331 173 37 26 40
27 118 18 116 -12 234 -29 280 -39 22 -5 76 -17 120 -26 150 -32 315 -93 315
-115 0 -18 -107 -63 -230 -96 -143 -39 -440 -86 -665 -106 -188 -16 -906 -22
-1040 -9 -60 6 -162 16 -225 22 -168 15 -349 40 -420 58 -19 5 -60 15 -90 21
-127 29 -276 85 -285 107 -11 29 157 85 425 143 99 21 319 48 340 41 8 -2 36
-19 61 -37z"/>
<path d="M4027 6333 c-7 -13 -8 -174 -2 -204 l7 -29 164 0 164 0 0 120 0 120
-164 0 c-91 0 -167 -3 -169 -7z"/>
<path d="M3860 5005 l0 -125 73 0 c41 0 115 3 165 6 l92 7 0 118 0 119 -165 0
-165 0 0 -125z"/>
<path d="M2050 7238 c-121 -33 -187 -62 -194 -85 -35 -120 -33 -383 2 -518 31
-115 54 -171 113 -271 103 -175 233 -281 429 -352 33 -11 81 -16 175 -16 134
0 169 7 271 54 59 27 69 69 69 285 0 183 -14 262 -69 404 -100 253 -296 434
-534 495 -69 17 -206 20 -262 4z m238 -244 c89 -26 147 -59 219 -128 115 -108
180 -240 209 -421 16 -102 12 -178 -9 -192 -31 -20 -133 -28 -205 -16 -190 32
-347 175 -432 394 -27 69 -52 248 -44 309 6 44 9 48 43 57 56 16 157 15 219
-3z"/>
<path d="M7520 7238 c-193 -57 -325 -148 -439 -305 -33 -45 -111 -196 -111
-214 0 -6 -7 -25 -14 -42 -24 -52 -56 -245 -56 -337 0 -113 26 -262 48 -275 9
-5 49 -23 87 -39 64 -26 81 -29 200 -30 103 -1 142 3 190 18 242 78 433 280
519 552 38 118 47 180 47 334 0 141 -12 242 -32 266 -13 16 -103 51 -179 70
-64 15 -209 17 -260 2z m230 -242 l45 -13 3 -74 c9 -197 -84 -422 -226 -549
-110 -99 -263 -148 -385 -125 -35 7 -69 15 -76 19 -14 9 -15 142 0 222 27 151
89 272 194 379 69 69 176 135 221 135 10 0 26 5 34 10 22 14 138 12 190 -4z"/>
<path d="M1539 5795 c-3 -2 -38 -9 -79 -16 -238 -36 -496 -167 -670 -338 -80
-79 -180 -210 -180 -237 0 -17 91 -142 154 -211 125 -136 333 -260 551 -326
136 -42 217 -52 420 -52 236 1 322 16 530 93 75 28 240 119 302 166 111 86
283 288 283 333 0 27 -99 157 -177 235 -115 112 -228 185 -408 263 -57 24
-120 44 -195 60 -41 8 -94 20 -118 25 -42 10 -404 14 -413 5z m456 -255 c22
-6 65 -19 95 -27 161 -43 321 -130 439 -239 75 -70 75 -71 -16 -150 -280 -244
-703 -333 -1113 -234 -103 24 -264 96 -351 156 -82 56 -169 140 -169 162 0 11
27 42 63 73 34 30 63 57 65 61 2 5 10 8 17 8 7 0 15 4 17 9 5 13 135 83 208
113 77 31 199 66 290 82 51 9 416 -2 455 -14z"/>
<path d="M7860 5789 c-19 -4 -69 -15 -110 -24 -225 -49 -440 -165 -601 -325
-83 -83 -179 -208 -179 -234 0 -16 71 -118 130 -186 56 -66 168 -158 261 -215
78 -48 233 -116 319 -138 30 -9 73 -20 96 -26 134 -35 453 -39 606 -6 188 40
334 101 493 204 89 58 237 205 297 296 l47 69 -21 36 c-132 218 -374 402 -648
493 -152 51 -272 67 -475 66 -99 -1 -196 -5 -215 -10z m515 -254 c33 -9 76
-20 95 -25 75 -19 200 -77 289 -135 70 -45 191 -150 191 -166 0 -21 -85 -100
-164 -153 -208 -140 -431 -206 -696 -206 -166 0 -328 29 -455 80 -110 45 -232
113 -285 159 -74 65 -110 105 -110 120 0 38 181 175 311 235 123 57 176 75
284 95 33 6 69 13 80 15 11 3 106 3 210 1 136 -2 207 -8 250 -20z"/>
<path d="M2515 4424 c-237 -31 -443 -182 -568 -414 -42 -79 -80 -189 -101
-292 -18 -87 -21 -317 -6 -388 6 -25 12 -54 15 -66 5 -21 57 -48 154 -79 74
-23 257 -23 332 0 113 35 235 108 310 184 31 32 119 145 119 153 0 5 9 21 20
36 29 39 74 154 101 258 21 77 24 112 24 259 0 201 -12 264 -53 282 -118 52
-258 78 -347 67z m173 -255 c26 -9 32 -17 37 -53 8 -53 -19 -232 -45 -304 -71
-191 -203 -332 -364 -386 -47 -16 -194 -22 -254 -10 -27 6 -31 11 -37 53 -15
109 38 323 110 446 59 101 180 202 293 245 55 21 211 26 260 9z"/>
<path d="M7195 4424 c-70 -9 -144 -29 -201 -54 l-61 -27 -16 -91 c-38 -203 -1
-465 90 -646 102 -202 265 -351 452 -412 63 -21 96 -25 193 -25 101 0 128 4
196 26 108 37 120 48 132 120 13 81 14 305 1 386 -23 139 -94 313 -171 414
-68 89 -84 106 -145 153 -80 63 -105 77 -210 122 -56 24 -196 42 -260 34z
m185 -259 c89 -30 136 -61 215 -140 64 -64 89 -97 122 -165 53 -111 85 -249
81 -354 l-3 -80 -35 -9 c-19 -5 -79 -7 -135 -5 -92 3 -106 6 -179 42 -105 51
-195 141 -254 254 -60 114 -82 196 -89 333 l-6 116 29 11 c45 16 202 14 254
-3z"/>
</g>
</svg>
